<!--?xml version="1.0" encoding="utf-8"?-->
<!-- Generator: Adobe Illustrator 16.0.0, SVG Export Plug-In . SVG Version: 6.00 Build 0)  -->

<svg version="1.1" id="Layer_1" xmlns="http://www.w3.org/2000/svg" xmlns:xlink="http://www.w3.org/1999/xlink" x="0px" y="0px" width="140px" height="72.331px" viewBox="0 0 140 72.331" enable-background="new 0 0 140 72.331" xml:space="preserve" style="">
<path fill="none" stroke="#603913" stroke-miterlimit="10" d="M15.787,59.826c-0.336-0.335-0.504-0.744-0.504-1.224V11.73
	c0-0.527,0.155-0.959,0.468-1.296c0.312-0.335,0.731-0.504,1.26-0.504h20.88c5.616,0,9.815,1.236,12.6,3.708
	c2.783,2.473,4.176,5.844,4.176,10.116c0,2.497-0.612,4.621-1.836,6.372c-1.224,1.753-2.653,3.013-4.284,3.78
	c2.016,0.912,3.719,2.4,5.112,4.464c1.392,2.064,2.088,4.417,2.088,7.056c0,4.464-1.512,8.064-4.536,10.8s-7.249,4.104-12.672,4.104
	H17.011C16.531,60.33,16.122,60.163,15.787,59.826z M36.595,30.594c2.448,0,4.331-0.6,5.652-1.8c1.319-1.199,1.98-2.808,1.98-4.824
	c0-2.016-0.648-3.575-1.944-4.68c-1.296-1.104-3.193-1.656-5.688-1.656h-11.16v12.96H36.595z M37.315,52.626
	c2.495,0,4.439-0.684,5.832-2.052c1.392-1.368,2.088-3.107,2.088-5.22c0-2.111-0.708-3.852-2.124-5.22
	c-1.416-1.368-3.348-2.052-5.796-2.052h-11.88v14.544H37.315z" class="fmXTXKvz_0"></path>
<path fill="none" stroke="#603913" stroke-miterlimit="10" d="M65.251,59.826c-0.336-0.335-0.504-0.744-0.504-1.224V11.658
	c0-0.528,0.167-0.947,0.504-1.26c0.335-0.312,0.744-0.468,1.224-0.468h6.912c0.527,0,0.947,0.156,1.26,0.468
	c0.312,0.313,0.469,0.732,0.469,1.26v46.944c0,0.48-0.157,0.889-0.469,1.224c-0.313,0.336-0.732,0.504-1.26,0.504h-6.912
	C65.995,60.33,65.586,60.163,65.251,59.826z" class="fmXTXKvz_1"></path>
<path fill="none" stroke="#603913" stroke-miterlimit="10" d="M86.85,59.826c-0.337-0.335-0.504-0.744-0.504-1.224V11.73
	c0-0.527,0.155-0.959,0.468-1.296c0.312-0.335,0.731-0.504,1.26-0.504h5.832c0.911,0,1.632,0.457,2.16,1.368l13.896,25.776
	l13.896-25.776c0.527-0.911,1.248-1.368,2.16-1.368h5.76c0.527,0,0.96,0.168,1.296,0.504c0.336,0.336,0.504,0.769,0.504,1.296
	v46.872c0,0.529-0.168,0.948-0.504,1.26c-0.336,0.313-0.769,0.468-1.296,0.468h-6.191c-0.48,0-0.89-0.167-1.225-0.504
	c-0.336-0.335-0.504-0.744-0.504-1.224v-30.96L113.85,46.65c-0.529,1.057-1.321,1.584-2.376,1.584h-3.024
	c-1.008,0-1.824-0.527-2.447-1.584L95.993,27.642v30.96c0,0.48-0.156,0.889-0.468,1.224c-0.313,0.336-0.732,0.504-1.26,0.504h-6.192
	C87.593,60.33,87.185,60.163,86.85,59.826z" class="fmXTXKvz_2"></path>
<path fill="#754C29" stroke="#8B5E3C" stroke-width="2" stroke-miterlimit="10" d="M15.283,66.581L131.781,66.581" class="fmXTXKvz_3"></path>
<style data-made-with="vivus-instant">.fmXTXKvz_0{stroke-dasharray:293 295;stroke-dashoffset:294;animation:fmXTXKvz_draw_0 3550ms ease-in-out 0ms infinite,fmXTXKvz_fade 3550ms linear 0ms infinite;}.fmXTXKvz_1{stroke-dasharray:119 121;stroke-dashoffset:120;animation:fmXTXKvz_draw_1 3550ms ease-in-out 0ms infinite,fmXTXKvz_fade 3550ms linear 0ms infinite;}.fmXTXKvz_2{stroke-dasharray:313 315;stroke-dashoffset:314;animation:fmXTXKvz_draw_2 3550ms ease-in-out 0ms infinite,fmXTXKvz_fade 3550ms linear 0ms infinite;}.fmXTXKvz_3{stroke-dasharray:117 119;stroke-dashoffset:118;animation:fmXTXKvz_draw_3 3550ms ease-in-out 0ms infinite,fmXTXKvz_fade 3550ms linear 0ms infinite;}@keyframes fmXTXKvz_draw{100%{stroke-dashoffset:0;}}@keyframes fmXTXKvz_fade{0%{stroke-opacity:1;}91.54929577464789%{stroke-opacity:1;}100%{stroke-opacity:0;}}@keyframes fmXTXKvz_draw_0{1.4084507042253522%{stroke-dashoffset: 294}30.776146239136953%{ stroke-dashoffset: 0;}100%{ stroke-dashoffset: 0;}}@keyframes fmXTXKvz_draw_1{30.776146239136953%{stroke-dashoffset: 120}42.762960743182504%{ stroke-dashoffset: 0;}100%{ stroke-dashoffset: 0;}}@keyframes fmXTXKvz_draw_2{42.7629607431825%{stroke-dashoffset: 314}74.12845869543503%{ stroke-dashoffset: 0;}100%{ stroke-dashoffset: 0;}}@keyframes fmXTXKvz_draw_3{74.12845869543503%{stroke-dashoffset: 118}85.91549295774648%{ stroke-dashoffset: 0;}100%{ stroke-dashoffset: 0;}}</style></svg>
