<svg id="Layer_1" data-name="Layer 1" xmlns="http://www.w3.org/2000/svg" viewBox="0 0 944 1053.82"><defs><style>.cls-1{fill:#93278f;}.cls-2,.cls-5{fill:#006837;}.cls-2{stroke:#000;}.cls-2,.cls-3,.cls-4{stroke-miterlimit:10;}.cls-2,.cls-4{stroke-width:10px;}.cls-3,.cls-4{fill:none;stroke:#006837;}.cls-3{stroke-width:20px;}.cls-6{font-size:36px;font-family:MyriadPro-Regular, Myriad Pro;}.cls-7{letter-spacing:-0.01em;}</style></defs><title>grid-gaps</title><rect class="cls-1" x="0.5" y="40.32" width="277" height="277"/><path d="M358,71V347H82V71H358m1-1H81V348H359V70Z" transform="translate(-81 -30.18)"/><rect class="cls-1" x="333.5" y="40.32" width="277" height="277"/><path d="M691,71V347H415V71H691m1-1H414V348H692V70Z" transform="translate(-81 -30.18)"/><rect class="cls-1" x="666.5" y="40.32" width="277" height="277"/><path d="M1024,71V347H748V71h276m1-1H747V348h278V70Z" transform="translate(-81 -30.18)"/><rect class="cls-1" x="0.5" y="408.32" width="277" height="277"/><path d="M358,439V715H82V439H358m1-1H81V716H359V438Z" transform="translate(-81 -30.18)"/><rect class="cls-1" x="333.5" y="408.32" width="277" height="277"/><path d="M691,439V715H415V439H691m1-1H414V716H692V438Z" transform="translate(-81 -30.18)"/><rect class="cls-1" x="666.5" y="408.32" width="277" height="277"/><path d="M1024,439V715H748V439h276m1-1H747V716h278V438Z" transform="translate(-81 -30.18)"/><rect class="cls-1" x="0.5" y="776.32" width="277" height="277"/><path d="M358,807v276H82V807H358m1-1H81v278H359V806Z" transform="translate(-81 -30.18)"/><rect class="cls-1" x="333.5" y="776.32" width="277" height="277"/><path d="M691,807v276H415V807H691m1-1H414v278H692V806Z" transform="translate(-81 -30.18)"/><rect class="cls-1" x="666.5" y="776.32" width="277" height="277"/><path d="M1024,807v276H748V807h276m1-1H747v278h278V806Z" transform="translate(-81 -30.18)"/><path class="cls-2" d="M183.5,412.5" transform="translate(-81 -30.18)"/><path class="cls-3" d="M31,391" transform="translate(-81 -30.18)"/><path class="cls-3" d="M47,519" transform="translate(-81 -30.18)"/><line class="cls-4" x1="141.5" y1="381.54" x2="141.5" y2="342.09"/><polygon class="cls-5" points="123.28 379.1 159.72 379.1 141.5 397.32 123.28 379.1"/><polygon class="cls-5" points="123.28 344.54 159.72 344.54 141.5 326.32 123.28 344.54"/><text class="cls-6" transform="translate(35.44 349)">30<tspan class="cls-7" x="36.94" y="0">p</tspan><tspan x="56.91" y="0">x</tspan></text><line class="cls-4" x1="294.06" y1="539.57" x2="316.23" y2="539.57"/><polygon class="cls-5" points="296.5 521.34 296.5 557.79 278.28 539.57 296.5 521.34"/><polygon class="cls-5" points="313.78 521.34 313.78 557.79 332 539.57 313.78 521.34"/><text class="cls-6" transform="translate(266.69 397.13)">20<tspan class="cls-7" x="36.94" y="0">p</tspan><tspan x="56.91" y="0">x</tspan></text><text class="cls-6" transform="translate(368.69 349.13)">30<tspan class="cls-7" x="36.94" y="0">p</tspan><tspan x="56.91" y="0">x</tspan></text><line class="cls-4" x1="472" y1="381.04" x2="472" y2="341.59"/><polygon class="cls-5" points="453.78 378.6 490.22 378.6 472 396.82 453.78 378.6"/><polygon class="cls-5" points="453.78 344.04 490.22 344.04 472 325.82 453.78 344.04"/><line class="cls-4" x1="626.7" y1="539.57" x2="648.87" y2="539.57"/><polygon class="cls-5" points="629.14 521.34 629.14 557.79 610.92 539.57 629.14 521.34"/><polygon class="cls-5" points="646.42 521.34 646.42 557.79 664.64 539.57 646.42 521.34"/><text class="cls-6" transform="translate(601.69 397.13)">20<tspan class="cls-7" x="36.94" y="0">p</tspan><tspan x="56.91" y="0">x</tspan></text><text class="cls-6" transform="translate(703.69 349.13)">30<tspan class="cls-7" x="36.94" y="0">p</tspan><tspan x="56.91" y="0">x</tspan></text><line class="cls-4" x1="805" y1="381.04" x2="805" y2="341.59"/><polygon class="cls-5" points="786.78 378.6 823.22 378.6 805 396.82 786.78 378.6"/><polygon class="cls-5" points="786.78 344.04 823.22 344.04 805 325.82 786.78 344.04"/><line class="cls-4" x1="293.7" y1="930.57" x2="315.87" y2="930.57"/><polygon class="cls-5" points="296.14 912.34 296.14 948.79 277.92 930.57 296.14 912.34"/><polygon class="cls-5" points="313.42 912.34 313.42 948.79 331.64 930.57 313.42 912.34"/><line class="cls-4" x1="626.7" y1="930.57" x2="648.87" y2="930.57"/><polygon class="cls-5" points="629.14 912.34 629.14 948.79 610.92 930.57 629.14 912.34"/><polygon class="cls-5" points="646.42 912.34 646.42 948.79 664.64 930.57 646.42 912.34"/><text class="cls-6" transform="translate(266.69 769.13)">20<tspan class="cls-7" x="36.94" y="0">p</tspan><tspan x="56.91" y="0">x</tspan></text><text class="cls-6" transform="translate(601.69 769.13)">20<tspan class="cls-7" x="36.94" y="0">p</tspan><tspan x="56.91" y="0">x</tspan></text><line class="cls-4" x1="293.7" y1="168.57" x2="315.87" y2="168.57"/><polygon class="cls-5" points="296.14 150.34 296.14 186.79 277.92 168.57 296.14 150.34"/><polygon class="cls-5" points="313.42 150.34 313.42 186.79 331.64 168.57 313.42 150.34"/><line class="cls-4" x1="627.7" y1="168.57" x2="649.87" y2="168.57"/><polygon class="cls-5" points="630.14 150.34 630.14 186.79 611.92 168.57 630.14 150.34"/><polygon class="cls-5" points="647.42 150.34 647.42 186.79 665.64 168.57 647.42 150.34"/><line class="cls-4" x1="139" y1="751.04" x2="139" y2="711.59"/><polygon class="cls-5" points="120.78 748.6 157.22 748.6 139 766.82 120.78 748.6"/><polygon class="cls-5" points="120.78 714.03 157.22 714.03 139 695.82 120.78 714.03"/><line class="cls-4" x1="472" y1="752.04" x2="472" y2="712.59"/><polygon class="cls-5" points="453.78 749.6 490.22 749.6 472 767.82 453.78 749.6"/><polygon class="cls-5" points="453.78 715.03 490.22 715.03 472 696.82 453.78 715.03"/><line class="cls-4" x1="805" y1="751.04" x2="805" y2="711.59"/><polygon class="cls-5" points="786.78 748.6 823.22 748.6 805 766.82 786.78 748.6"/><polygon class="cls-5" points="786.78 714.03 823.22 714.03 805 695.82 786.78 714.03"/><text class="cls-6" transform="translate(35.69 719.13)">30<tspan class="cls-7" x="36.94" y="0">p</tspan><tspan x="56.91" y="0">x</tspan></text><text class="cls-6" transform="translate(368.69 719.13)">30<tspan class="cls-7" x="36.94" y="0">p</tspan><tspan x="56.91" y="0">x</tspan></text><text class="cls-6" transform="translate(703.69 719.13)">30<tspan class="cls-7" x="36.94" y="0">p</tspan><tspan x="56.91" y="0">x</tspan></text><text class="cls-6" transform="translate(266.69 30.13)">20<tspan class="cls-7" x="36.94" y="0">p</tspan><tspan x="56.91" y="0">x</tspan></text><text class="cls-6" transform="translate(610.69 30.13)">20<tspan class="cls-7" x="36.94" y="0">p</tspan><tspan x="56.91" y="0">x</tspan></text></svg>