<svg xmlns="http://www.w3.org/2000/svg" xmlns:xlink="http://www.w3.org/1999/xlink" width="73" height="73" version="1.1" viewBox="0 0 73 73"><title>algorithms-and-data-structures/analysis/space-complexity</title><desc>Created with Sketch.</desc><g id="algorithms-and-data-structures/analysis/space-complexity" fill="none" fill-rule="evenodd" stroke="none" stroke-width="1"><g id="container" fill="#FFF" fill-rule="nonzero" stroke="#022E3C" stroke-width="2" transform="translate(2.000000, 2.000000)"><rect id="mask" width="71" height="71" x="-1" y="-1" rx="14"/></g><g id="hardware" fill-rule="nonzero" transform="translate(15.000000, 15.000000)"><g id="Group" fill="#B5DBFF" transform="translate(32.312500, 10.398438)"><polygon id="Shape" points="11.688 23.203 3.867 23.203 3.867 18.047 0 18.047 0 15.469 6.445 15.469 6.445 20.625 11.688 20.625"/><polygon id="Shape" points="6.445 7.734 0 7.734 0 5.156 3.867 5.156 3.867 0 11.688 0 11.688 2.578 6.445 2.578"/><polygon id="Shape" points="0 10.313 11.688 10.313 11.688 12.891 0 12.891"/></g><polygon id="Shape" fill="#D5E8FE" points="11.688 18.133 5.242 18.133 5.242 12.977 0 12.977 0 10.398 7.82 10.398 7.82 15.555 11.688 15.555"/><polygon id="Shape" fill="#D5E8FE" points="18.133 11.688 15.555 11.688 15.555 7.82 10.398 7.82 10.398 0 12.977 0 12.977 5.242 18.133 5.242"/><polygon id="Shape" fill="#D5E8FE" points="7.82 33.602 0 33.602 0 31.023 5.242 31.023 5.242 25.867 11.688 25.867 11.688 28.445 7.82 28.445"/><polygon id="Shape" fill="#B5DBFF" points="28.445 11.688 25.867 11.688 25.867 5.242 31.023 5.242 31.023 0 33.602 0 33.602 7.82 28.445 7.82"/><polygon id="Shape" fill="#D5E8FE" points="12.977 44 10.398 44 10.398 36.18 15.555 36.18 15.555 32.313 18.133 32.313 18.133 38.758 12.977 38.758"/><polygon id="Shape" fill="#B5DBFF" points="33.602 44 31.023 44 31.023 38.758 25.867 38.758 25.867 32.313 28.445 32.313 28.445 36.18 33.602 36.18"/><polygon id="Shape" fill="#D5E8FE" points="0 20.711 11.688 20.711 11.688 23.289 0 23.289"/><polygon id="Shape" fill="#D5E8FE" points="20.711 32.313 23.289 32.313 23.289 44 20.711 44"/><polygon id="Shape" fill="#B5DBFF" points="22 32.313 23.289 32.313 23.289 44 22 44"/><polygon id="Shape" fill="#D5E8FE" points="20.711 0 23.289 0 23.289 11.688 20.711 11.688"/><polygon id="Shape" fill="#B5DBFF" points="22 0 23.289 0 23.289 11.688 22 11.688"/><polygon id="Shape" fill="#76E2F8" points="10.398 10.398 10.398 33.602 33.602 33.602 33.602 10.398"/><polygon id="Shape" fill="#4BB9EC" points="22 10.398 33.602 10.398 33.602 33.602 22 33.602"/><polygon id="Shape" fill="#0B799D" points="15.555 15.555 15.555 28.445 28.445 28.445 28.445 15.555"/><polygon id="Shape" fill="#07485E" points="22 15.555 28.445 15.555 28.445 28.445 22 28.445"/><polygon id="Shape" fill="#EDF5FF" points="20.711 20.711 23.289 20.711 23.289 23.289 20.711 23.289"/><polygon id="Shape" fill="#D5E8FE" points="22 20.711 23.289 20.711 23.289 23.289 22 23.289"/></g></g></svg>