<svg width="39" height="54" viewBox="0 0 39 54" fill="none" xmlns="http://www.w3.org/2000/svg">
<path fill-rule="evenodd" clip-rule="evenodd" d="M1 1L12.8929 1L38 25.4725L26.1071 25.4725L1 1ZM9.09375 20.4814L17.1875 28.3706L17.1875 45.1108L9.09374 53L9.09375 20.4814Z" fill="#FF3D77"/>
<path d="M9.09374 53L0.999992 45.1108L0.999998 10.4992L1 1M9.09374 53L9.09375 20.4814L17.1875 28.3706M9.09374 53L17.1875 45.1108L17.1875 28.3706M26.1071 37.0648L26.1071 25.4725M26.1071 37.0648L17.1875 28.3706M26.1071 37.0648L38 37.0648L38 25.4725M26.1071 25.4725L1 1M26.1071 25.4725L38 25.4725M1 1L12.8929 1L38 25.4725" stroke="#FF3D77"/>
</svg>
